<?xml version="1.0" standalone="no"?>
<!DOCTYPE svg PUBLIC "-//W3C//DTD SVG 20010904//EN"
 "http://www.w3.org/TR/2001/REC-SVG-20010904/DTD/svg10.dtd">
<svg version="1.0" xmlns="http://www.w3.org/2000/svg"
 width="1024.000000pt" height="1024.000000pt" viewBox="0 0 1024.000000 1024.000000"
 preserveAspectRatio="xMidYMid meet">
<metadata>
Created by potrace 1.14, written by Peter Selinger 2001-2017
</metadata>
<g transform="translate(0.000000,1024.000000) scale(0.100000,-0.100000)"
fill="#000000" stroke="none">
<path d="M4858 10236 c-1 -2 -50 -6 -108 -10 -58 -3 -116 -8 -130 -11 -14 -2
-52 -7 -85 -10 -119 -11 -315 -41 -445 -70 -41 -9 -86 -18 -100 -21 -90 -17
-361 -94 -500 -141 -536 -180 -993 -422 -1455 -769 -82 -62 -161 -123 -175
-136 -14 -13 -38 -34 -55 -46 -51 -40 -214 -192 -324 -302 -292 -294 -537
-612 -778 -1007 -142 -235 -320 -621 -423 -918 -69 -202 -140 -458 -174 -635
-2 -14 -9 -47 -15 -75 -6 -27 -13 -66 -16 -85 -12 -77 -34 -238 -40 -285 -3
-27 -8 -64 -10 -81 -26 -188 -26 -858 0 -1015 2 -13 6 -51 10 -84 3 -33 8 -76
10 -95 11 -75 27 -176 32 -205 3 -16 7 -39 8 -50 7 -43 16 -89 20 -94 2 -4 6
-24 9 -46 6 -38 50 -211 95 -375 114 -417 358 -943 628 -1355 80 -121 278
-392 338 -460 14 -16 49 -57 78 -90 353 -408 774 -759 1257 -1049 180 -109
518 -276 709 -351 223 -88 539 -189 660 -212 14 -2 28 -6 31 -8 5 -3 121 -28
231 -50 56 -11 257 -45 299 -50 289 -35 363 -39 675 -39 245 -1 407 5 510 19
17 2 59 7 95 10 36 4 74 9 85 11 11 1 40 6 65 9 81 11 257 44 377 71 65 14
124 27 133 29 8 2 56 15 105 30 50 15 106 31 125 36 56 14 255 83 380 132 260
103 475 207 735 357 160 92 510 340 675 478 218 182 542 508 672 677 12 17 28
36 35 43 26 27 212 279 270 367 141 212 334 561 422 765 13 30 32 73 42 95
126 286 284 828 325 1115 3 19 7 46 9 60 12 62 23 148 31 225 3 33 7 71 10 85
25 156 25 850 0 1000 -3 14 -8 54 -11 90 -12 122 -15 144 -20 160 -2 8 -7 35
-10 60 -3 25 -8 56 -10 70 -3 14 -7 36 -10 50 -5 23 -20 101 -31 160 -10 52
-75 305 -95 368 -63 205 -125 375 -220 602 -30 72 -217 440 -259 510 -18 30
-41 69 -51 85 -106 174 -304 451 -444 622 -168 203 -485 520 -658 656 -15 12
-39 32 -52 44 -36 32 -280 213 -350 260 -259 173 -455 284 -720 408 -374 175
-868 332 -1220 389 -36 6 -82 14 -110 20 -11 2 -45 7 -75 11 -30 4 -62 9 -71
10 -29 6 -116 15 -294 32 -50 4 -642 12 -647 9z"/>
</g>
</svg>
